<svg class="svg-icon" style="width: 1em;height: 1em;vertical-align: middle;fill: currentColor;overflow: hidden;" viewBox="0 0 1024 1024" version="1.1" xmlns="http://www.w3.org/2000/svg"><path d="M501.271844 800.329555h33.16277v157.622644h-33.16277z" fill="#6E6E96" /><path d="M5.231427 941.370814h1008.0114v33.16277H5.231427z" fill="#6E6E96" /><path d="M516.481119 962.068528m-45.350087 0a45.350087 45.350087 0 1 0 90.700175 0 45.350087 45.350087 0 1 0-90.700175 0Z" fill="#FFC65F" /><path d="M516.481119 1024c-34.149362 0-61.931472-27.78211-61.931472-61.931472 0-34.145217 27.78211-61.927327 61.931472-61.927327s61.931472 27.78211 61.931472 61.927327c0 34.149362-27.78211 61.931472-61.931472 61.931472z m0-90.700175a28.79772 28.79772 0 0 0-28.768702 28.764557 28.801865 28.801865 0 0 0 28.768702 28.768703 28.801865 28.801865 0 0 0 28.768703-28.768703 28.79772 28.79772 0 0 0-28.768703-28.764557z" fill="#6E6E96" /><path d="M977.936913 518.868839c0 15.992746-13.078567 29.09204-29.079604 29.092039H91.997668c-15.992746 0-29.079604-13.082713-29.079603-29.092039V333.700369c0-15.996891 13.082713-29.079604 29.079603-29.079603h856.867932c15.9886 0 29.075458 13.074422 29.075458 29.079603v185.16847h-0.004145z" fill="#A8A8BD" /><path d="M175.460069 423.252283m-37.805558 0a37.805557 37.805557 0 1 0 75.611115 0 37.805557 37.805557 0 1 0-75.611115 0Z" fill="#DFD800" /><path d="M175.460069 477.639225c-29.987434 0-54.386942-24.399508-54.386943-54.386942s24.399508-54.386942 54.386943-54.386942 54.386942 24.399508 54.386942 54.386942-24.399508 54.386942-54.386942 54.386942z m0-75.611114c-11.702312 0-21.224173 9.52186-21.224173 21.224172s9.52186 21.224173 21.224173 21.224173 21.224173-9.52186 21.224172-21.224173-9.52186-21.224173-21.224172-21.224172z" fill="#6E6E96" /><path d="M669.709696 388.79202h240.380336v56.223331h-240.380336z" fill="#E0E0E0" /><path d="M910.090032 461.596736h-240.380336a16.581385 16.581385 0 0 1-16.581385-16.581385V388.79202a16.581385 16.581385 0 0 1 16.581385-16.581385h240.380336a16.581385 16.581385 0 0 1 16.581385 16.581385v56.223331a16.581385 16.581385 0 0 1-16.581385 16.581385z m-223.798951-33.16277h207.217566V405.373405h-207.217566v23.060561zM547.571216 461.588445a16.581385 16.581385 0 0 1-16.581385-16.581385V388.79202a16.581385 16.581385 0 0 1 33.16277 0v56.21504a16.581385 16.581385 0 0 1-16.581385 16.581385zM483.243733 461.588445a16.581385 16.581385 0 0 1-16.581384-16.581385V388.79202a16.581385 16.581385 0 0 1 33.162769 0v56.21504a16.581385 16.581385 0 0 1-16.581385 16.581385zM421.979662 461.588445a16.581385 16.581385 0 0 1-16.581385-16.581385V388.79202a16.581385 16.581385 0 0 1 33.16277 0v56.21504a16.581385 16.581385 0 0 1-16.581385 16.581385zM360.694864 461.588445a16.581385 16.581385 0 0 1-16.581385-16.581385V388.79202a16.581385 16.581385 0 0 1 33.162769 0v56.21504a16.581385 16.581385 0 0 1-16.581384 16.581385z" fill="#6E6E96" /><path d="M950.805622 500.359868H93.93769c-15.992746 0-29.079604-46.245482-29.079603-62.246519v64.17825c0 15.992746 13.082713 29.087894 29.079603 29.087894h856.872077c15.9886 0 29.087894-13.082713 29.087895-29.087894v-64.17825c-0.008291 15.996891-13.095149 62.246519-29.09204 62.246519z" fill="#6E6E96" opacity=".25" /><path d="M948.873891 323.146318H91.997668c-15.992746 0-29.079604 25.518751-29.079603 41.511497v25.203705c0-15.9886 13.082713-41.519788 29.079603-41.519788h856.867932c15.9886 0 29.075458 25.522897 29.075458 41.519788v-25.203705c-0.004145-15.992746-13.082713-41.511497-29.067167-41.511497z" fill="#FFFFFF" opacity=".19" /><path d="M948.861455 564.542263H91.997668c-25.178833 0-45.660988-20.486301-45.660988-45.673424V333.700369c0-25.178833 20.482156-45.660988 45.660988-45.660988h856.867932c25.174687 0 45.656843 20.482156 45.656843 45.660988v185.16847c-0.004145 25.187124-20.486301 45.673424-45.660988 45.673424zM91.997668 321.20215a12.510655 12.510655 0 0 0-12.498219 12.498219v185.16847a12.518946 12.518946 0 0 0 12.498219 12.510654h856.863787a12.518946 12.518946 0 0 0 12.498219-12.510654V333.700369a12.510655 12.510655 0 0 0-12.494074-12.498219H91.997668z" fill="#6E6E96" /><path d="M977.936913 758.403524c0 15.9886-13.078567 29.083749-29.079604 29.083748H91.997668c-15.992746 0-29.079604-13.082713-29.079603-29.083748v-185.172615c0-15.996891 13.082713-29.087894 29.079603-29.087895h856.867932c15.9886 0 29.075458 13.078567 29.075458 29.087895v185.172615h-0.004145z" fill="#A8A8BD" /><path d="M175.460069 662.766241m-37.805558 0a37.805557 37.805557 0 1 0 75.611115 0 37.805557 37.805557 0 1 0-75.611115 0Z" fill="#00DFB3" /><path d="M175.460069 717.149038c-29.987434 0-54.386942-24.395362-54.386943-54.382797s24.399508-54.386942 54.386943-54.386942 54.386942 24.399508 54.386942 54.386942-24.399508 54.382797-54.386942 54.382797z m0-75.606969a21.249045 21.249045 0 0 0-21.224173 21.224172c0 11.698167 9.52186 21.220027 21.224173 21.220028s21.224173-9.52186 21.224172-21.220028a21.249045 21.249045 0 0 0-21.224172-21.224172z" fill="#6E6E96" /><path d="M669.709696 628.310124h240.380336v56.219185h-240.380336z" fill="#E0E0E0" /><path d="M910.090032 701.110694h-240.380336a16.581385 16.581385 0 0 1-16.581385-16.581385V628.310124a16.581385 16.581385 0 0 1 16.581385-16.581385h240.380336a16.581385 16.581385 0 0 1 16.581385 16.581385v56.219185a16.581385 16.581385 0 0 1-16.581385 16.581385z m-223.798951-33.16277h207.217566v-23.056415h-207.217566v23.056415zM547.571216 701.102403a16.581385 16.581385 0 0 1-16.581385-16.581385v-56.210894a16.581385 16.581385 0 0 1 33.16277 0v56.21504a16.581385 16.581385 0 0 1-16.581385 16.577239zM483.243733 701.102403a16.581385 16.581385 0 0 1-16.581384-16.581385v-56.210894a16.581385 16.581385 0 0 1 33.162769 0v56.21504a16.581385 16.581385 0 0 1-16.581385 16.577239zM421.979662 701.102403a16.581385 16.581385 0 0 1-16.581385-16.581385v-56.210894a16.581385 16.581385 0 0 1 33.16277 0v56.21504a16.581385 16.581385 0 0 1-16.581385 16.577239zM360.694864 701.102403a16.581385 16.581385 0 0 1-16.581385-16.581385v-56.210894a16.581385 16.581385 0 0 1 33.162769 0v56.21504a16.581385 16.581385 0 0 1-16.581384 16.577239z" fill="#6E6E96" /><path d="M950.805622 739.877971H93.93769c-15.992746 0-29.079604-46.237192-29.079603-62.246518v64.17825c0 15.9886 13.082713 29.083749 29.079603 29.083749h856.872077c15.9886 0 29.087894-13.082713 29.087895-29.083749v-64.17825c-0.008291 16.009327-13.095149 62.246519-29.09204 62.246518z" fill="#6E6E96" opacity=".25" /><path d="M948.873891 562.664421H91.997668c-15.992746 0-29.079604 25.518751-29.079603 41.519788v25.195414c0-15.9886 13.082713-41.515642 29.079603-41.515642h856.867932c15.9886 0 29.075458 25.514606 29.075458 41.515642v-25.195414c-0.004145-16.001036-13.082713-41.519788-29.067167-41.519788z" fill="#FFFFFF" opacity=".19" /><path d="M948.861455 804.064512H91.997668c-25.178833 0-45.660988-20.482156-45.660988-45.665134v-185.172615c0-25.178833 20.482156-45.669279 45.660988-45.669279h856.867932c25.174687 0 45.656843 20.486301 45.656843 45.669279v185.172615c-0.004145 25.182978-20.486301 45.665134-45.660988 45.665134zM91.997668 560.724399a12.518946 12.518946 0 0 0-12.498219 12.50651v185.172615a12.518946 12.518946 0 0 0 12.498219 12.502364h856.863787a12.518946 12.518946 0 0 0 12.498219-12.502364v-185.172615a12.518946 12.518946 0 0 0-12.494074-12.50651H91.997668z" fill="#6E6E96" /><path d="M974.686962 267.329231c0 15.992746-13.078567 29.087894-29.079604 29.087894H88.747717c-15.992746 0-29.079604-13.086858-29.079604-29.087894v-185.172615c0-16.001036 13.082713-29.079604 29.079604-29.079603h856.872077c15.984455 0 29.075458 13.078567 29.075458 29.079603l-0.00829 185.172615z" fill="#A8A8BD" /><path d="M172.210117 171.704385m-37.805557 0a37.805557 37.805557 0 1 0 75.611115 0 37.805557 37.805557 0 1 0-75.611115 0Z" fill="#FF7D7D" /><path d="M172.210117 226.091327c-29.987434 0-54.386942-24.399508-54.386942-54.386942s24.395362-54.386942 54.386942-54.386942 54.386942 24.399508 54.386942 54.386942-24.399508 54.386942-54.386942 54.386942z m0-75.611115c-11.702312 0-21.224173 9.52186-21.224172 21.224173s9.52186 21.224173 21.224172 21.224173 21.224173-9.52186 21.224173-21.224173-9.52186-21.224173-21.224173-21.224173z" fill="#6E6E96" /><path d="M666.46389 137.244122h240.37619V193.463307h-240.37619z" fill="#E0E0E0" /><path d="M906.84008 210.044692h-240.37619a16.581385 16.581385 0 0 1-16.581385-16.581385V137.244122a16.581385 16.581385 0 0 1 16.581385-16.581385h240.37619a16.581385 16.581385 0 0 1 16.581385 16.581385V193.463307a16.581385 16.581385 0 0 1-16.581385 16.581385z m-223.794805-33.16277h207.213421v-23.056415h-207.213421v23.056415zM544.321264 210.040547a16.581385 16.581385 0 0 1-16.581384-16.581385V137.244122a16.581385 16.581385 0 0 1 33.162769 0v56.21504a16.581385 16.581385 0 0 1-16.581385 16.581385zM479.989637 210.040547a16.581385 16.581385 0 0 1-16.581385-16.581385V137.244122a16.581385 16.581385 0 0 1 33.162769 0v56.21504a16.581385 16.581385 0 0 1-16.581384 16.581385zM418.72971 210.040547a16.581385 16.581385 0 0 1-16.581384-16.581385V137.244122a16.581385 16.581385 0 0 1 33.162769 0v56.21504a16.581385 16.581385 0 0 1-16.581385 16.581385zM357.444912 210.040547a16.581385 16.581385 0 0 1-16.581385-16.581385V137.244122a16.581385 16.581385 0 0 1 33.16277 0v56.21504a16.581385 16.581385 0 0 1-16.581385 16.581385z" fill="#6E6E96" /><path d="M947.551525 248.81197H90.687739c-15.992746 0-29.079604-46.245482-29.079604-62.246519v64.17825c0 15.992746 13.082713 29.087894 29.079604 29.087894h856.872077c15.9886 0 29.083749-13.086858 29.083749-29.087894V186.565451c-0.004145 16.001036-13.091003 62.246519-29.09204 62.246519z" fill="#6E6E96" opacity=".25" /><path d="M945.619794 71.59842H88.747717c-15.992746 0-29.079604 25.518751-29.079604 41.511496v25.19956c0-15.9886 13.082713-41.511497 29.079604-41.511497h856.872077c15.984455 0 29.075458 25.522897 29.075458 41.511497v-25.19956c-0.008291-15.992746-13.086858-41.511497-29.075458-41.511496z" fill="#FFFFFF" opacity=".19" /><path d="M945.611503 312.99851H88.747717c-25.178833 0-45.660988-20.486301-45.660989-45.669279v-185.172615c0-25.178833 20.482156-45.660988 45.660989-45.660988h856.872077c25.174687 0 45.656843 20.482156 45.656843 45.660988v185.172615c-0.012436 25.182978-20.494592 45.669279-45.665134 45.669279zM88.747717 69.658398a12.510655 12.510655 0 0 0-12.498219 12.498218v185.172615a12.518946 12.518946 0 0 0 12.498219 12.50651h856.863786a12.518946 12.518946 0 0 0 12.498219-12.50651l0.004145-185.172615a12.510655 12.510655 0 0 0-12.494073-12.498218H88.747717z" fill="#6E6E96" /></svg>