<?xml version="1.0" encoding="UTF-8"?>
<svg id="margin" xmlns="http://www.w3.org/2000/svg" width="400" height="320" viewBox="0 0 400 320">
  <defs>
    <style>
      .cls-1 {
        fill: #374158;
      }

      .cls-1, .cls-2, .cls-3, .cls-4, .cls-5, .cls-6, .cls-7, .cls-8, .cls-9, .cls-10 {
        stroke-width: 0px;
      }

      .cls-1, .cls-2, .cls-3, .cls-6, .cls-7 {
        fill-rule: evenodd;
      }

      .cls-2 {
        fill: #2c4259;
      }

      .cls-3 {
        fill: #b3bac6;
      }

      .cls-4 {
        fill: #405372;
      }

      .cls-5, .cls-6 {
        fill: #ea5a36;
      }

      .cls-11 {
        stroke: #0089cc;
        stroke-miterlimit: 10;
        stroke-width: 2px;
      }

      .cls-11, .cls-9 {
        fill: #0089cc;
      }

      .cls-7 {
        fill: #8d97aa;
      }

      .cls-8 {
        fill: #e81366;
      }

      .cls-10 {
        fill: #fbccc0;
      }
    </style>
  </defs>
  <g>
    <path class="cls-6" d="M304.21,51.16c-.88.91-1.79,1.79-2.72,2.65-.84.95-1.6,1.93-2.44,2.88-1.39-.6-2.88-1.14-4.43-1.79-1.11-.46-2.18-.81-3.3-1.25-.7-.28-1.53-.67-2.2-.28-.56.32-1.21,1.51-1.62,2.11-1.3,1.9-2.41,3.6-3.74,5.57-.3.44-.56.72-.53,1.18.02.51.37,1,.77,1.42.97,1.09,2.18,2.2,3.09,3.25.19.19.32.39.49.6,1.14,1.23,2.32,2.55,3.5,3.83-.86,2.55-1.48,5.04-1.95,8.01-2.88.63-6.73,1.37-9.52,2-.72.16-1.42.19-1.74.77-.35.6-.21,2.14-.21,2.53-.05,2.39-.09,4.36-.16,6.59-.02,1.04.05,1.86.86,2.21.42.19.97.21,1.46.32,1.3.32,2.81.77,4.22,1.14,1.93.49,3.78,1.02,5.52,1.42.44,2.44,1.14,4.64,1.9,6.75-.53.51-1.04.95-1.62,1.46-.35.3-.74.56-1.14.86-.19.14-.32.35-.49.49-.53.44-1.11.88-1.67,1.35-.19.16-.35.32-.53.49-.53.44-1.11.88-1.67,1.35-.39.35-1.3,1.02-1.35,1.62-.05.39.28.95.49,1.35.84,1.74,1.58,3.23,2.44,4.87.42.81.79,1.53,1.25,2.44.32.67.53,1.07,1.25,1.18.3.05.72-.12,1.14-.21,3.37-.79,7.15-1.67,10.49-2.53,1.83,2,3.71,3.97,5.78,5.73-.42,1.09-.67,2.32-1.09,3.74-.53,1.81-1.11,4.02-1.67,6.06-.16.6-.32,1.37.16,1.9.19.19.65.42,1.09.65,1.44.81,2.9,1.55,4.39,2.32.74.39,1.37.77,2.16,1.18.63.32,1.07.81,1.79.65.77-.16,1.14-.84,1.62-1.42.14-.16.35-.32.49-.49,1.35-1.46,2.48-2.81,3.78-4.22.63-.7,1.21-1.42,1.9-2.04,2.95,1.04,6.17,1.83,9.63,2.37.58,1.76.95,3.67,1.51,5.62.02.05.09.16.12.28.35,1.37.67,2.46,1.02,3.9.21.81.37,1.6,1.02,1.83.42.14,1.02.02,1.51,0,2.34-.07,5.04-.12,7.61-.21.97-.05,1.69-.02,2-.93.09-.26.12-.53.16-.81.09-.44.19-.91.28-1.35.6-2.72,1.3-6.22,1.83-9.07,2.53-.65,5.11-1.25,7.12-2.27.79.6,1.58,1.3,2.37,2,1.11.97,2.34,2.02,3.57,3.02.28.23.56.51.86.77.46.35.93.84,1.46,1.3.28.26.6.49.93.7.9.67,1.55.12,2.37-.49.74-.53,1.39-1.04,2.11-1.58,1.18-.88,2.3-1.65,3.67-2.65.67-.49,1.69-1.11,1.58-2-.05-.35-.3-.91-.49-1.35-.19-.42-.37-.86-.53-1.25-1.07-2.39-2.25-5.25-3.25-7.52,1.6-1.67,3.3-3.23,4.71-5.08.91.23,1.83.46,2.81.65.97.19,1.93.46,3.02.7.51.12,1.04.14,1.58.28.46.12.93.21,1.42.32.37.09.91.21,1.42.32.79.19,1.56.46,2.16.05.49-.32.95-1.67,1.25-2.27,1.04-2.14,1.81-3.81,2.88-5.94.26-.51.56-1,.44-1.62-.16-.79-1.42-1.51-2-2-2.23-1.81-4.46-3.53-6.59-5.36.81-2.51,1.6-5.34,2-8.05.81-.42,1.69-.67,2.6-1.02.44-.16.88-.32,1.35-.49,1.25-.42,2.69-1.07,3.9-1.51.67-.26,1.42-.49,1.95-.7.56-.23,1.07-.46,1.25-1.02.21-.63-.12-1.79-.21-2.48-.32-2.55-.67-4.94-.93-7.45-.16-.23-.28-.58-.49-.77-.46-.37-1.79-.42-2.48-.49-2.23-.26-5.2-.49-7.19-.7-.6-2.6-1.21-5.15-2.16-7.52,1.69-1.81,3.5-3.88,5.36-5.73.28-.3.56-.65.86-.97.49-.53,1.11-.81,1.14-1.74,0-.39-.26-.84-.53-1.25-1.3-1.95-2.41-3.64-3.78-5.69-.51-.74-1.14-2.09-1.95-2.16-.63-.05-1.46.28-2.16.6-2.04.88-4.9,1.69-7.12,2.71-2-2.27-4.18-4.36-6.43-6.38.7-2.44,1.23-4.83,1.9-7.29.21-.79.58-1.65.65-2.48.09-1.18-.56-1.35-1.42-1.79-2-1.02-3.74-1.97-5.73-3.02-.7-.37-1.83-1.16-2.44-1.14-.51.02-.88.32-1.25.7-.3.35-.6.72-.86,1.02-1.79,2.06-3.55,4.06-5.29,6.06-2.78-1.09-5.99-1.74-9.31-2.32-.74-2.44-1.39-5.48-2.11-8.17-.26-.95-.37-2.32-1.14-2.72-.58-.3-1.49-.12-2.6-.12-1.95,0-3.32.07-5.29.12-.58,0-2.37-.16-2.92.28-.6.46-.67,1.81-.86,2.65-.21.95-.42,1.62-.6,2.53-.32,1.81-.95,4.36-1.3,6.06-2.74.74-5.55,1.44-7.96,2.53-.35-.35-.67-.65-.97-.97-.12-.14-.19-.28-.32-.44-.14-.16-.35-.28-.49-.44-.3-.3-.53-.67-.86-1.02-1.02-1.09-2.07-2.21-3.18-3.46-.35-.39-.95-1.16-1.51-1.3-.91-.23-2.16.79-2.81,1.14-1.56.86-2.97,1.69-4.55,2.6-.72.42-1.81.81-2.2,1.35-.58.79.02,2.09.32,3.13.02.12.07.23.12.32.3.77.6,1.95.86,2.81.51,1.76.93,3.48,1.51,5.13l-.14.05ZM342.39,61.56c1.83.44,3.46.93,4.97,1.67.79.37,1.49.74,2.16,1.14,2.11,1.25,3.92,2.62,5.62,4.32.53.53,1,1.18,1.51,1.79,2.51,3.02,4.32,6.85,5.25,11.19,1.18,5.52.09,12-2.32,16.71-.95,1.83-2.09,3.46-3.3,4.97-.49.63-1.07,1.18-1.62,1.74-2.34,2.32-5.22,4.27-8.49,5.57-1.37.56-2.9,1.07-4.43,1.35-3.53.67-6.71.74-10.33,0-5.45-1.14-9.65-3.64-12.97-6.92-2.2-2.18-4.06-4.71-5.45-7.8-.7-1.53-1.21-3.18-1.62-4.87-.77-3.16-.95-7.4-.12-11.09,1.25-5.48,3.67-9.54,6.99-12.93,1.6-1.62,3.62-3.11,5.62-4.27.72-.42,1.46-.72,2.27-1.09,1.56-.67,3.18-1.32,4.97-1.67,1.72-.32,3.88-.58,5.52-.53,2.09.07,3.97.28,5.8.74Z"/>
    <path class="cls-7" d="M22.44,286.89h352.52c5.97,0,11.18-3.25,13.97-8.07H8.47c2.79,4.82,7.99,8.07,13.97,8.07Z"/>
    <path class="cls-3" d="M223.85,270.75c-1.24,1.81-3.32,3.01-5.69,3.01h-38.93c-2.36,0-4.45-1.19-5.69-3.01H6.3c0,2.94.8,5.69,2.18,8.07h380.45c1.38-2.38,2.18-5.13,2.18-8.07h-167.25Z"/>
    <path class="cls-7" d="M350.32,264.1c0,3.67-2.98,6.65-6.65,6.65H53.73c-3.67,0-6.65-2.98-6.65-6.65V75.44c0-3.67,2.98-6.65,6.65-6.65h289.95c3.67,0,6.65,2.98,6.65,6.65v188.66Z"/>
    <path class="cls-2" d="M64.22,255.41h268.96V84.13H64.22v171.27Z"/>
    <rect class="cls-4" x="64.15" y="245.82" width="268.96" height="9.69"/>
    <path class="cls-1" d="M179.23,273.75h38.93c2.36,0,4.45-1.19,5.69-3.01h-50.31c1.24,1.81,3.32,3.01,5.69,3.01Z"/>
    <rect class="cls-4" x="64.22" y="84.13" width="268.96" height="17.34"/>
    <rect class="cls-4" x="256.33" y="91.8" width="76.85" height="44"/>
    <g>
      <path class="cls-8" d="M124.91,109.13c.36,1.97-.95,3.56-2.92,3.56h-19.83c-1.97,0-3.87-1.6-4.23-3.56-.36-1.96.95-3.55,2.91-3.55h19.84c1.97,0,3.87,1.6,4.23,3.55Z"/>
      <path class="cls-5" d="M137.18,122.62c.36,1.97-.95,3.56-2.92,3.56h-19.82c-1.98,0-3.87-1.59-4.24-3.56-.36-1.97.95-3.56,2.92-3.56h19.82c1.98,0,3.87,1.6,4.23,3.56h.01Z"/>
      <path class="cls-8" d="M245.27,135.79c.35,1.97-.96,3.56-2.93,3.56h-107.34c-1.97,0-3.87-1.6-4.23-3.56-.37-1.96.94-3.56,2.91-3.56h107.37c1.97,0,3.86,1.6,4.21,3.56Z"/>
      <path class="cls-9" d="M274.53,149.59c.36,1.97-.95,3.56-2.93,3.56h-134.93c-1.97,0-3.87-1.59-4.23-3.56-.36-1.96.95-3.56,2.91-3.56h134.97c1.98,0,3.85,1.59,4.21,3.56Z"/>
      <path class="cls-8" d="M170.37,164.61c.36,1.97-.95,3.56-2.92,3.56h-42.82c-1.97,0-3.86-1.59-4.22-3.56-.36-1.96.94-3.55,2.91-3.55h42.82c1.98,0,3.87,1.59,4.22,3.55Z"/>
      <path class="cls-10" d="M166.73,177.17c.36,1.96-.95,3.55-2.91,3.55h-19.78c-1.97,0-3.86-1.6-4.22-3.55-.36-1.97.94-3.56,2.91-3.56h19.8c1.96,0,3.86,1.6,4.21,3.56h0Z"/>
      <path class="cls-5" d="M197.42,177.17c.35,1.96-.95,3.55-2.92,3.55h-19.78c-1.97,0-3.86-1.6-4.22-3.55-.36-1.97.94-3.56,2.91-3.56h19.8c1.97,0,3.85,1.6,4.21,3.56Z"/>
      <path class="cls-9" d="M205.23,188.41c.35,1.97-.95,3.56-2.92,3.56h-56.57c-1.96,0-3.86-1.59-4.22-3.56-.36-1.97.95-3.56,2.91-3.56h56.58c1.97,0,3.86,1.59,4.21,3.56Z"/>
      <path class="cls-10" d="M169.38,207.35c.36,1.96-.94,3.56-2.9,3.56h-19.76c-1.97,0-3.86-1.6-4.21-3.56-.37-1.97.93-3.56,2.91-3.56h19.77c1.97,0,3.85,1.6,4.21,3.56h-.01Z"/>
      <path class="cls-8" d="M265.27,207.35c.36,1.96-.95,3.56-2.92,3.56h-81.81c-1.96,0-3.85-1.6-4.21-3.56-.37-1.97.94-3.56,2.9-3.56h81.83c1.96,0,3.85,1.6,4.2,3.56h0Z"/>
      <path class="cls-9" d="M302.45,207.35c.35,1.96-.96,3.56-2.93,3.56h-24.35c-1.97,0-3.85-1.6-4.2-3.56-.35-1.97.95-3.56,2.93-3.56h24.36c1.97,0,3.85,1.6,4.2,3.56Z"/>
      <path class="cls-8" d="M172.92,223.05c.36,1.97-.94,3.56-2.9,3.56h-19.76c-1.96,0-3.85-1.59-4.21-3.56-.36-1.96.93-3.55,2.9-3.55h19.74c1.97,0,3.86,1.59,4.22,3.55Z"/>
      <path class="cls-9" d="M225.19,236.25c.36,1.96-.95,3.55-2.91,3.55h-70.24c-1.96,0-3.85-1.59-4.2-3.55-.37-1.97.93-3.55,2.9-3.55h70.26c1.96,0,3.85,1.58,4.2,3.55Z"/>
    </g>
  </g>
  <g>
    <path class="cls-11" d="M265.41,110.79l20.38-10.5v3.03l-17.17,8.61v.09l17.17,8.61v3.03l-20.38-10.5v-2.37Z"/>
    <path class="cls-11" d="M288.64,125.41l12.25-31.84h2.99l-12.3,31.84h-2.94Z"/>
    <path class="cls-11" d="M327.02,113.2l-20.38,10.45v-3.03l17.3-8.61v-.09l-17.3-8.61v-3.03l20.38,10.45v2.46Z"/>
  </g>
</svg>